<?xml version="1.0" encoding="utf-8" ?>
<svg baseProfile="full" height="404.8mm" version="1.1" width="404.8mm" xmlns="http://www.w3.org/2000/svg" xmlns:ev="http://www.w3.org/2001/xml-events" xmlns:xlink="http://www.w3.org/1999/xlink"><defs /><rect fill="none" height="404.8" stroke="black" stroke-width="1" width="404.8" x="0" y="0" /><circle cx="50" cy="50" fill="none" r="2.5" stroke="red" stroke-width="1" /><circle cx="65" cy="50" fill="none" r="2.5" stroke="red" stroke-width="1" /><circle cx="80" cy="50" fill="none" r="2.5" stroke="red" stroke-width="1" /><circle cx="95" cy="50" fill="none" r="2.5" stroke="red" stroke-width="1" /><circle cx="110" cy="50" fill="none" r="2.5" stroke="red" stroke-width="1" /><circle cx="125" cy="50" fill="none" r="2.5" stroke="red" stroke-width="1" /><circle cx="140" cy="50" fill="none" r="2.5" stroke="red" stroke-width="1" /><circle cx="155" cy="50" fill="none" r="2.5" stroke="red" stroke-width="1" /><circle cx="170" cy="50" fill="none" r="2.5" stroke="red" stroke-width="1" /><circle cx="185" cy="50" fill="none" r="2.5" stroke="red" stroke-width="1" /><circle cx="200" cy="50" fill="none" r="2.5" stroke="red" stroke-width="1" /><circle cx="215" cy="50" fill="none" r="2.5" stroke="red" stroke-width="1" /><circle cx="230" cy="50" fill="none" r="2.5" stroke="red" stroke-width="1" /><circle cx="245" cy="50" fill="none" r="2.5" stroke="red" stroke-width="1" /><circle cx="50" cy="65" fill="none" r="2.5" stroke="red" stroke-width="1" /><circle cx="65" cy="65" fill="none" r="2.5" stroke="red" stroke-width="1" /><circle cx="80" cy="65" fill="none" r="2.5" stroke="red" stroke-width="1" /><circle cx="95" cy="65" fill="none" r="2.5" stroke="red" stroke-width="1" /><circle cx="110" cy="65" fill="none" r="2.5" stroke="red" stroke-width="1" /><circle cx="125" cy="65" fill="none" r="2.5" stroke="red" stroke-width="1" /><circle cx="140" cy="65" fill="none" r="2.5" stroke="red" stroke-width="1" /><circle cx="155" cy="65" fill="none" r="2.5" stroke="red" stroke-width="1" /><circle cx="170" cy="65" fill="none" r="2.5" stroke="red" stroke-width="1" /><circle cx="185" cy="65" fill="none" r="2.5" stroke="red" stroke-width="1" /><circle cx="200" cy="65" fill="none" r="2.5" stroke="red" stroke-width="1" /><circle cx="215" cy="65" fill="none" r="2.5" stroke="red" stroke-width="1" /><circle cx="230" cy="65" fill="none" r="2.5" stroke="red" stroke-width="1" /><circle cx="245" cy="65" fill="none" r="2.5" stroke="red" stroke-width="1" /><circle cx="50" cy="80" fill="none" r="2.5" stroke="red" stroke-width="1" /><circle cx="65" cy="80" fill="none" r="2.5" stroke="red" stroke-width="1" /><circle cx="80" cy="80" fill="none" r="2.5" stroke="red" stroke-width="1" /><circle cx="95" cy="80" fill="none" r="2.5" stroke="red" stroke-width="1" /><circle cx="110" cy="80" fill="none" r="2.5" stroke="red" stroke-width="1" /><circle cx="125" cy="80" fill="none" r="2.5" stroke="red" stroke-width="1" /><circle cx="140" cy="80" fill="none" r="2.5" stroke="red" stroke-width="1" /><circle cx="155" cy="80" fill="none" r="2.5" stroke="red" stroke-width="1" /><circle cx="170" cy="80" fill="none" r="2.5" stroke="red" stroke-width="1" /><circle cx="185" cy="80" fill="none" r="2.5" stroke="red" stroke-width="1" /><circle cx="200" cy="80" fill="none" r="2.5" stroke="red" stroke-width="1" /><circle cx="215" cy="80" fill="none" r="2.5" stroke="red" stroke-width="1" /><circle cx="230" cy="80" fill="none" r="2.5" stroke="red" stroke-width="1" /><circle cx="245" cy="80" fill="none" r="2.5" stroke="red" stroke-width="1" /><circle cx="50" cy="95" fill="none" r="2.5" stroke="red" stroke-width="1" /><circle cx="65" cy="95" fill="none" r="2.5" stroke="red" stroke-width="1" /><circle cx="80" cy="95" fill="none" r="2.5" stroke="red" stroke-width="1" /><circle cx="95" cy="95" fill="none" r="2.5" stroke="red" stroke-width="1" /><circle cx="110" cy="95" fill="none" r="2.5" stroke="red" stroke-width="1" /><circle cx="125" cy="95" fill="none" r="2.5" stroke="red" stroke-width="1" /><circle cx="140" cy="95" fill="none" r="2.5" stroke="red" stroke-width="1" /><circle cx="155" cy="95" fill="none" r="2.5" stroke="red" stroke-width="1" /><circle cx="170" cy="95" fill="none" r="2.5" stroke="red" stroke-width="1" /><circle cx="185" cy="95" fill="none" r="2.5" stroke="red" stroke-width="1" /><circle cx="200" cy="95" fill="none" r="2.5" stroke="red" stroke-width="1" /><circle cx="215" cy="95" fill="none" r="2.5" stroke="red" stroke-width="1" /><circle cx="230" cy="95" fill="none" r="2.5" stroke="red" stroke-width="1" /><circle cx="245" cy="95" fill="none" r="2.5" stroke="red" stroke-width="1" /><circle cx="50" cy="110" fill="none" r="2.5" stroke="red" stroke-width="1" /><circle cx="65" cy="110" fill="none" r="2.5" stroke="red" stroke-width="1" /><circle cx="80" cy="110" fill="none" r="2.5" stroke="red" stroke-width="1" /><circle cx="95" cy="110" fill="none" r="2.5" stroke="red" stroke-width="1" /><circle cx="110" cy="110" fill="none" r="2.5" stroke="red" stroke-width="1" /><circle cx="125" cy="110" fill="none" r="2.5" stroke="red" stroke-width="1" /><circle cx="140" cy="110" fill="none" r="2.5" stroke="red" stroke-width="1" /><circle cx="155" cy="110" fill="none" r="2.5" stroke="red" stroke-width="1" /><circle cx="170" cy="110" fill="none" r="2.5" stroke="red" stroke-width="1" /><circle cx="185" cy="110" fill="none" r="2.5" stroke="red" stroke-width="1" /><circle cx="200" cy="110" fill="none" r="2.5" stroke="red" stroke-width="1" /><circle cx="215" cy="110" fill="none" r="2.5" stroke="red" stroke-width="1" /><circle cx="230" cy="110" fill="none" r="2.5" stroke="red" stroke-width="1" /><circle cx="245" cy="110" fill="none" r="2.5" stroke="red" stroke-width="1" /><circle cx="50" cy="125" fill="none" r="2.5" stroke="red" stroke-width="1" /><circle cx="65" cy="125" fill="none" r="2.5" stroke="red" stroke-width="1" /><circle cx="80" cy="125" fill="none" r="2.5" stroke="red" stroke-width="1" /><circle cx="95" cy="125" fill="none" r="2.5" stroke="red" stroke-width="1" /><circle cx="110" cy="125" fill="none" r="2.5" stroke="red" stroke-width="1" /><circle cx="125" cy="125" fill="none" r="2.5" stroke="red" stroke-width="1" /><circle cx="140" cy="125" fill="none" r="2.5" stroke="red" stroke-width="1" /><circle cx="155" cy="125" fill="none" r="2.5" stroke="red" stroke-width="1" /><circle cx="170" cy="125" fill="none" r="2.5" stroke="red" stroke-width="1" /><circle cx="185" cy="125" fill="none" r="2.5" stroke="red" stroke-width="1" /><circle cx="200" cy="125" fill="none" r="2.5" stroke="red" stroke-width="1" /><circle cx="215" cy="125" fill="none" r="2.5" stroke="red" stroke-width="1" /><circle cx="230" cy="125" fill="none" r="2.5" stroke="red" stroke-width="1" /><circle cx="245" cy="125" fill="none" r="2.5" stroke="red" stroke-width="1" /><circle cx="50" cy="140" fill="none" r="2.5" stroke="red" stroke-width="1" /><circle cx="65" cy="140" fill="none" r="2.5" stroke="red" stroke-width="1" /><circle cx="80" cy="140" fill="none" r="2.5" stroke="red" stroke-width="1" /><circle cx="95" cy="140" fill="none" r="2.5" stroke="red" stroke-width="1" /><circle cx="110" cy="140" fill="none" r="2.5" stroke="red" stroke-width="1" /><circle cx="125" cy="140" fill="none" r="2.5" stroke="red" stroke-width="1" /><circle cx="140" cy="140" fill="none" r="2.5" stroke="red" stroke-width="1" /><circle cx="155" cy="140" fill="none" r="2.5" stroke="red" stroke-width="1" /><circle cx="170" cy="140" fill="none" r="2.5" stroke="red" stroke-width="1" /><circle cx="185" cy="140" fill="none" r="2.5" stroke="red" stroke-width="1" /><circle cx="200" cy="140" fill="none" r="2.5" stroke="red" stroke-width="1" /><circle cx="215" cy="140" fill="none" r="2.5" stroke="red" stroke-width="1" /><circle cx="230" cy="140" fill="none" r="2.5" stroke="red" stroke-width="1" /><circle cx="245" cy="140" fill="none" r="2.5" stroke="red" stroke-width="1" /><circle cx="50" cy="155" fill="none" r="2.5" stroke="red" stroke-width="1" /><circle cx="65" cy="155" fill="none" r="2.5" stroke="red" stroke-width="1" /><circle cx="80" cy="155" fill="none" r="2.5" stroke="red" stroke-width="1" /><circle cx="95" cy="155" fill="none" r="2.5" stroke="red" stroke-width="1" /><circle cx="110" cy="155" fill="none" r="2.5" stroke="red" stroke-width="1" /><circle cx="125" cy="155" fill="none" r="2.5" stroke="red" stroke-width="1" /><circle cx="140" cy="155" fill="none" r="2.5" stroke="red" stroke-width="1" /><circle cx="155" cy="155" fill="none" r="2.5" stroke="red" stroke-width="1" /><circle cx="170" cy="155" fill="none" r="2.5" stroke="red" stroke-width="1" /><circle cx="185" cy="155" fill="none" r="2.5" stroke="red" stroke-width="1" /><circle cx="200" cy="155" fill="none" r="2.5" stroke="red" stroke-width="1" /><circle cx="215" cy="155" fill="none" r="2.5" stroke="red" stroke-width="1" /><circle cx="230" cy="155" fill="none" r="2.5" stroke="red" stroke-width="1" /><circle cx="245" cy="155" fill="none" r="2.5" stroke="red" stroke-width="1" /><circle cx="50" cy="170" fill="none" r="2.5" stroke="red" stroke-width="1" /><circle cx="65" cy="170" fill="none" r="2.5" stroke="red" stroke-width="1" /><circle cx="80" cy="170" fill="none" r="2.5" stroke="red" stroke-width="1" /><circle cx="95" cy="170" fill="none" r="2.5" stroke="red" stroke-width="1" /><circle cx="110" cy="170" fill="none" r="2.5" stroke="red" stroke-width="1" /><circle cx="125" cy="170" fill="none" r="2.5" stroke="red" stroke-width="1" /><circle cx="140" cy="170" fill="none" r="2.5" stroke="red" stroke-width="1" /><circle cx="155" cy="170" fill="none" r="2.5" stroke="red" stroke-width="1" /><circle cx="170" cy="170" fill="none" r="2.5" stroke="red" stroke-width="1" /><circle cx="185" cy="170" fill="none" r="2.5" stroke="red" stroke-width="1" /><circle cx="200" cy="170" fill="none" r="2.5" stroke="red" stroke-width="1" /><circle cx="215" cy="170" fill="none" r="2.5" stroke="red" stroke-width="1" /><circle cx="230" cy="170" fill="none" r="2.5" stroke="red" stroke-width="1" /><circle cx="245" cy="170" fill="none" r="2.5" stroke="red" stroke-width="1" /><circle cx="50" cy="185" fill="none" r="2.5" stroke="red" stroke-width="1" /><circle cx="65" cy="185" fill="none" r="2.5" stroke="red" stroke-width="1" /><circle cx="80" cy="185" fill="none" r="2.5" stroke="red" stroke-width="1" /><circle cx="95" cy="185" fill="none" r="2.5" stroke="red" stroke-width="1" /><circle cx="110" cy="185" fill="none" r="2.5" stroke="red" stroke-width="1" /><circle cx="125" cy="185" fill="none" r="2.5" stroke="red" stroke-width="1" /><circle cx="140" cy="185" fill="none" r="2.5" stroke="red" stroke-width="1" /><circle cx="155" cy="185" fill="none" r="2.5" stroke="red" stroke-width="1" /><circle cx="170" cy="185" fill="none" r="2.5" stroke="red" stroke-width="1" /><circle cx="185" cy="185" fill="none" r="2.5" stroke="red" stroke-width="1" /><circle cx="200" cy="185" fill="none" r="2.5" stroke="red" stroke-width="1" /><circle cx="215" cy="185" fill="none" r="2.5" stroke="red" stroke-width="1" /><circle cx="230" cy="185" fill="none" r="2.5" stroke="red" stroke-width="1" /><circle cx="245" cy="185" fill="none" r="2.5" stroke="red" stroke-width="1" /><circle cx="50" cy="200" fill="none" r="2.5" stroke="red" stroke-width="1" /><circle cx="65" cy="200" fill="none" r="2.5" stroke="red" stroke-width="1" /><circle cx="80" cy="200" fill="none" r="2.5" stroke="red" stroke-width="1" /><circle cx="95" cy="200" fill="none" r="2.5" stroke="red" stroke-width="1" /><circle cx="110" cy="200" fill="none" r="2.5" stroke="red" stroke-width="1" /><circle cx="125" cy="200" fill="none" r="2.5" stroke="red" stroke-width="1" /><circle cx="140" cy="200" fill="none" r="2.5" stroke="red" stroke-width="1" /><circle cx="155" cy="200" fill="none" r="2.5" stroke="red" stroke-width="1" /><circle cx="170" cy="200" fill="none" r="2.5" stroke="red" stroke-width="1" /><circle cx="185" cy="200" fill="none" r="2.5" stroke="red" stroke-width="1" /><circle cx="200" cy="200" fill="none" r="2.5" stroke="red" stroke-width="1" /><circle cx="215" cy="200" fill="none" r="2.5" stroke="red" stroke-width="1" /><circle cx="230" cy="200" fill="none" r="2.5" stroke="red" stroke-width="1" /><circle cx="245" cy="200" fill="none" r="2.5" stroke="red" stroke-width="1" /><circle cx="50" cy="215" fill="none" r="2.5" stroke="red" stroke-width="1" /><circle cx="65" cy="215" fill="none" r="2.5" stroke="red" stroke-width="1" /><circle cx="80" cy="215" fill="none" r="2.5" stroke="red" stroke-width="1" /><circle cx="95" cy="215" fill="none" r="2.5" stroke="red" stroke-width="1" /><circle cx="110" cy="215" fill="none" r="2.5" stroke="red" stroke-width="1" /><circle cx="125" cy="215" fill="none" r="2.5" stroke="red" stroke-width="1" /><circle cx="140" cy="215" fill="none" r="2.5" stroke="red" stroke-width="1" /><circle cx="155" cy="215" fill="none" r="2.5" stroke="red" stroke-width="1" /><circle cx="170" cy="215" fill="none" r="2.5" stroke="red" stroke-width="1" /><circle cx="185" cy="215" fill="none" r="2.5" stroke="red" stroke-width="1" /><circle cx="200" cy="215" fill="none" r="2.5" stroke="red" stroke-width="1" /><circle cx="215" cy="215" fill="none" r="2.5" stroke="red" stroke-width="1" /><circle cx="230" cy="215" fill="none" r="2.5" stroke="red" stroke-width="1" /><circle cx="245" cy="215" fill="none" r="2.5" stroke="red" stroke-width="1" /><circle cx="50" cy="230" fill="none" r="2.5" stroke="red" stroke-width="1" /><circle cx="65" cy="230" fill="none" r="2.5" stroke="red" stroke-width="1" /><circle cx="80" cy="230" fill="none" r="2.5" stroke="red" stroke-width="1" /><circle cx="95" cy="230" fill="none" r="2.5" stroke="red" stroke-width="1" /><circle cx="110" cy="230" fill="none" r="2.5" stroke="red" stroke-width="1" /><circle cx="125" cy="230" fill="none" r="2.5" stroke="red" stroke-width="1" /><circle cx="140" cy="230" fill="none" r="2.5" stroke="red" stroke-width="1" /><circle cx="155" cy="230" fill="none" r="2.5" stroke="red" stroke-width="1" /><circle cx="170" cy="230" fill="none" r="2.5" stroke="red" stroke-width="1" /><circle cx="185" cy="230" fill="none" r="2.5" stroke="red" stroke-width="1" /><circle cx="200" cy="230" fill="none" r="2.5" stroke="red" stroke-width="1" /><circle cx="215" cy="230" fill="none" r="2.5" stroke="red" stroke-width="1" /><circle cx="230" cy="230" fill="none" r="2.5" stroke="red" stroke-width="1" /><circle cx="245" cy="230" fill="none" r="2.5" stroke="red" stroke-width="1" /><circle cx="50" cy="245" fill="none" r="2.5" stroke="red" stroke-width="1" /><circle cx="65" cy="245" fill="none" r="2.5" stroke="red" stroke-width="1" /><circle cx="80" cy="245" fill="none" r="2.5" stroke="red" stroke-width="1" /><circle cx="95" cy="245" fill="none" r="2.5" stroke="red" stroke-width="1" /><circle cx="110" cy="245" fill="none" r="2.5" stroke="red" stroke-width="1" /><circle cx="125" cy="245" fill="none" r="2.5" stroke="red" stroke-width="1" /><circle cx="140" cy="245" fill="none" r="2.5" stroke="red" stroke-width="1" /><circle cx="155" cy="245" fill="none" r="2.5" stroke="red" stroke-width="1" /><circle cx="170" cy="245" fill="none" r="2.5" stroke="red" stroke-width="1" /><circle cx="185" cy="245" fill="none" r="2.5" stroke="red" stroke-width="1" /><circle cx="200" cy="245" fill="none" r="2.5" stroke="red" stroke-width="1" /><circle cx="215" cy="245" fill="none" r="2.5" stroke="red" stroke-width="1" /><circle cx="230" cy="245" fill="none" r="2.5" stroke="red" stroke-width="1" /><circle cx="245" cy="245" fill="none" r="2.5" stroke="red" stroke-width="1" /><circle cx="25.0" cy="25.0" fill="none" r="2.0" stroke="blue" stroke-width="1" /><circle cx="379.8" cy="25.0" fill="none" r="2.0" stroke="blue" stroke-width="1" /><circle cx="25.0" cy="379.8" fill="none" r="2.0" stroke="blue" stroke-width="1" /><circle cx="379.8" cy="379.8" fill="none" r="2.0" stroke="blue" stroke-width="1" /><rect fill="none" height="20" stroke="green" stroke-width="1" width="10" x="197.4" y="0" /><rect fill="none" height="20" stroke="green" stroke-width="1" width="10" x="197.4" y="384.8" /></svg>